<mxfile host="app.diagrams.net" modified="2021-10-15T11:58:06.653Z" agent="5.0 (Macintosh; Intel Mac OS X 10_15_7) AppleWebKit/537.36 (KHTML, like Gecko) Chrome/94.0.4606.61 Safari/537.36" etag="Xoag0RVjJ39X_qRgMUXk" version="15.5.2" type="github">
  <diagram id="C5RBs43oDa-KdzZeNtuy" name="Page-1">
    <mxGraphModel dx="1426" dy="769" grid="1" gridSize="10" guides="1" tooltips="1" connect="1" arrows="1" fold="1" page="1" pageScale="1" pageWidth="827" pageHeight="1169" math="0" shadow="0">
      <root>
        <mxCell id="WIyWlLk6GJQsqaUBKTNV-0" />
        <mxCell id="WIyWlLk6GJQsqaUBKTNV-1" parent="WIyWlLk6GJQsqaUBKTNV-0" />
        <mxCell id="WIyWlLk6GJQsqaUBKTNV-2" value="" style="rounded=0;html=1;jettySize=auto;orthogonalLoop=1;fontSize=11;endArrow=block;endFill=0;endSize=8;strokeWidth=1;shadow=0;labelBackgroundColor=none;edgeStyle=orthogonalEdgeStyle;" parent="WIyWlLk6GJQsqaUBKTNV-1" edge="1">
          <mxGeometry relative="1" as="geometry">
            <mxPoint x="220" y="120" as="sourcePoint" />
            <mxPoint x="220" y="170" as="targetPoint" />
          </mxGeometry>
        </mxCell>
        <mxCell id="WIyWlLk6GJQsqaUBKTNV-4" value="" style="rounded=0;html=1;jettySize=auto;orthogonalLoop=1;fontSize=11;endArrow=block;endFill=0;endSize=8;strokeWidth=1;shadow=0;labelBackgroundColor=none;edgeStyle=orthogonalEdgeStyle;" parent="WIyWlLk6GJQsqaUBKTNV-1" edge="1">
          <mxGeometry y="20" relative="1" as="geometry">
            <mxPoint as="offset" />
            <mxPoint x="219.5" y="230" as="sourcePoint" />
            <mxPoint x="219.5" y="270" as="targetPoint" />
          </mxGeometry>
        </mxCell>
        <mxCell id="WIyWlLk6GJQsqaUBKTNV-12" value="標準入力の値を数値に変換" style="rounded=1;whiteSpace=wrap;html=1;fontSize=12;glass=0;strokeWidth=1;shadow=0;" parent="WIyWlLk6GJQsqaUBKTNV-1" vertex="1">
          <mxGeometry x="160" y="270" width="120" height="70" as="geometry" />
        </mxCell>
        <mxCell id="IPIBNWrIA910yKeqlVKv-0" value="&lt;font style=&quot;font-size: 12px&quot;&gt;開始&lt;/font&gt;" style="ellipse;whiteSpace=wrap;html=1;" vertex="1" parent="WIyWlLk6GJQsqaUBKTNV-1">
          <mxGeometry x="160" y="40" width="120" height="80" as="geometry" />
        </mxCell>
        <mxCell id="IPIBNWrIA910yKeqlVKv-1" value="&lt;font style=&quot;font-size: 12px&quot;&gt;標準入力&lt;/font&gt;" style="shape=parallelogram;perimeter=parallelogramPerimeter;whiteSpace=wrap;html=1;fixedSize=1;fontSize=18;" vertex="1" parent="WIyWlLk6GJQsqaUBKTNV-1">
          <mxGeometry x="160" y="170" width="120" height="60" as="geometry" />
        </mxCell>
        <mxCell id="IPIBNWrIA910yKeqlVKv-2" value="" style="endArrow=classic;html=1;rounded=0;fontSize=12;" edge="1" parent="WIyWlLk6GJQsqaUBKTNV-1">
          <mxGeometry width="50" height="50" relative="1" as="geometry">
            <mxPoint x="220" y="340" as="sourcePoint" />
            <mxPoint x="220" y="390" as="targetPoint" />
          </mxGeometry>
        </mxCell>
        <mxCell id="IPIBNWrIA910yKeqlVKv-3" value="数値が３と５で割り切れるか" style="rhombus;whiteSpace=wrap;html=1;fontSize=12;" vertex="1" parent="WIyWlLk6GJQsqaUBKTNV-1">
          <mxGeometry x="160" y="390" width="120" height="90" as="geometry" />
        </mxCell>
        <mxCell id="IPIBNWrIA910yKeqlVKv-7" value="" style="endArrow=classic;html=1;rounded=0;fontSize=12;" edge="1" parent="WIyWlLk6GJQsqaUBKTNV-1">
          <mxGeometry relative="1" as="geometry">
            <mxPoint x="220" y="480" as="sourcePoint" />
            <mxPoint x="220" y="530" as="targetPoint" />
          </mxGeometry>
        </mxCell>
        <mxCell id="IPIBNWrIA910yKeqlVKv-8" value="Yes" style="edgeLabel;resizable=0;html=1;align=center;verticalAlign=middle;fontSize=12;" connectable="0" vertex="1" parent="IPIBNWrIA910yKeqlVKv-7">
          <mxGeometry relative="1" as="geometry" />
        </mxCell>
        <mxCell id="IPIBNWrIA910yKeqlVKv-9" value="" style="endArrow=classic;html=1;rounded=0;fontSize=12;" edge="1" parent="WIyWlLk6GJQsqaUBKTNV-1">
          <mxGeometry relative="1" as="geometry">
            <mxPoint x="280" y="434.5" as="sourcePoint" />
            <mxPoint x="330" y="434.5" as="targetPoint" />
            <Array as="points">
              <mxPoint x="300" y="435" />
              <mxPoint x="310" y="434.5" />
              <mxPoint x="320" y="435" />
            </Array>
          </mxGeometry>
        </mxCell>
        <mxCell id="IPIBNWrIA910yKeqlVKv-10" value="No" style="edgeLabel;resizable=0;html=1;align=center;verticalAlign=middle;fontSize=12;" connectable="0" vertex="1" parent="IPIBNWrIA910yKeqlVKv-9">
          <mxGeometry relative="1" as="geometry" />
        </mxCell>
        <mxCell id="IPIBNWrIA910yKeqlVKv-18" value="No" style="edgeLabel;resizable=0;html=1;align=center;verticalAlign=middle;fontSize=12;" connectable="0" vertex="1" parent="IPIBNWrIA910yKeqlVKv-9">
          <mxGeometry relative="1" as="geometry">
            <mxPoint x="165" as="offset" />
          </mxGeometry>
        </mxCell>
        <mxCell id="IPIBNWrIA910yKeqlVKv-13" value="数値が5で割り切れるか" style="rhombus;whiteSpace=wrap;html=1;fontSize=12;" vertex="1" parent="WIyWlLk6GJQsqaUBKTNV-1">
          <mxGeometry x="330" y="390" width="120" height="90" as="geometry" />
        </mxCell>
        <mxCell id="IPIBNWrIA910yKeqlVKv-14" value="" style="endArrow=classic;html=1;rounded=0;fontSize=12;entryX=0;entryY=0.5;entryDx=0;entryDy=0;" edge="1" parent="WIyWlLk6GJQsqaUBKTNV-1" target="IPIBNWrIA910yKeqlVKv-19">
          <mxGeometry relative="1" as="geometry">
            <mxPoint x="450" y="434.5" as="sourcePoint" />
            <mxPoint x="500" y="434.5" as="targetPoint" />
            <Array as="points">
              <mxPoint x="470" y="435" />
              <mxPoint x="480" y="434.5" />
              <mxPoint x="490" y="435" />
            </Array>
          </mxGeometry>
        </mxCell>
        <mxCell id="IPIBNWrIA910yKeqlVKv-16" value="" style="endArrow=classic;html=1;rounded=0;fontSize=12;" edge="1" parent="WIyWlLk6GJQsqaUBKTNV-1">
          <mxGeometry relative="1" as="geometry">
            <mxPoint x="389.5" y="480" as="sourcePoint" />
            <mxPoint x="389.5" y="530" as="targetPoint" />
          </mxGeometry>
        </mxCell>
        <mxCell id="IPIBNWrIA910yKeqlVKv-17" value="Yes" style="edgeLabel;resizable=0;html=1;align=center;verticalAlign=middle;fontSize=12;" connectable="0" vertex="1" parent="IPIBNWrIA910yKeqlVKv-16">
          <mxGeometry relative="1" as="geometry" />
        </mxCell>
        <mxCell id="IPIBNWrIA910yKeqlVKv-19" value="数値が３で割り切れるか" style="rhombus;whiteSpace=wrap;html=1;fontSize=12;" vertex="1" parent="WIyWlLk6GJQsqaUBKTNV-1">
          <mxGeometry x="495.01" y="390" width="120" height="90" as="geometry" />
        </mxCell>
        <mxCell id="IPIBNWrIA910yKeqlVKv-20" value="" style="endArrow=classic;html=1;rounded=0;fontSize=12;entryX=0;entryY=0.5;entryDx=0;entryDy=0;" edge="1" parent="WIyWlLk6GJQsqaUBKTNV-1" target="IPIBNWrIA910yKeqlVKv-37">
          <mxGeometry relative="1" as="geometry">
            <mxPoint x="615.01" y="434.5" as="sourcePoint" />
            <mxPoint x="680" y="435" as="targetPoint" />
            <Array as="points">
              <mxPoint x="635.01" y="435" />
              <mxPoint x="645.01" y="434.5" />
              <mxPoint x="655.01" y="435" />
            </Array>
          </mxGeometry>
        </mxCell>
        <mxCell id="IPIBNWrIA910yKeqlVKv-21" value="No" style="edgeLabel;resizable=0;html=1;align=center;verticalAlign=middle;fontSize=12;" connectable="0" vertex="1" parent="IPIBNWrIA910yKeqlVKv-20">
          <mxGeometry relative="1" as="geometry" />
        </mxCell>
        <mxCell id="IPIBNWrIA910yKeqlVKv-22" value="" style="endArrow=classic;html=1;rounded=0;fontSize=12;" edge="1" parent="WIyWlLk6GJQsqaUBKTNV-1">
          <mxGeometry relative="1" as="geometry">
            <mxPoint x="554.51" y="480" as="sourcePoint" />
            <mxPoint x="554.51" y="530" as="targetPoint" />
          </mxGeometry>
        </mxCell>
        <mxCell id="IPIBNWrIA910yKeqlVKv-23" value="Yes" style="edgeLabel;resizable=0;html=1;align=center;verticalAlign=middle;fontSize=12;" connectable="0" vertex="1" parent="IPIBNWrIA910yKeqlVKv-22">
          <mxGeometry relative="1" as="geometry" />
        </mxCell>
        <mxCell id="IPIBNWrIA910yKeqlVKv-25" value="FizzBuzzと表示" style="shape=parallelogram;perimeter=parallelogramPerimeter;whiteSpace=wrap;html=1;fixedSize=1;fontSize=12;" vertex="1" parent="WIyWlLk6GJQsqaUBKTNV-1">
          <mxGeometry x="160" y="530" width="120" height="60" as="geometry" />
        </mxCell>
        <mxCell id="IPIBNWrIA910yKeqlVKv-26" value="Buzzと表示" style="shape=parallelogram;perimeter=parallelogramPerimeter;whiteSpace=wrap;html=1;fixedSize=1;fontSize=12;" vertex="1" parent="WIyWlLk6GJQsqaUBKTNV-1">
          <mxGeometry x="330" y="530" width="120" height="60" as="geometry" />
        </mxCell>
        <mxCell id="IPIBNWrIA910yKeqlVKv-27" value="Fizzと表示" style="shape=parallelogram;perimeter=parallelogramPerimeter;whiteSpace=wrap;html=1;fixedSize=1;fontSize=12;" vertex="1" parent="WIyWlLk6GJQsqaUBKTNV-1">
          <mxGeometry x="495.01" y="530" width="120" height="60" as="geometry" />
        </mxCell>
        <mxCell id="IPIBNWrIA910yKeqlVKv-28" value="数値を表示" style="shape=parallelogram;perimeter=parallelogramPerimeter;whiteSpace=wrap;html=1;fixedSize=1;fontSize=12;" vertex="1" parent="WIyWlLk6GJQsqaUBKTNV-1">
          <mxGeometry x="660" y="530" width="120" height="60" as="geometry" />
        </mxCell>
        <mxCell id="IPIBNWrIA910yKeqlVKv-29" value="" style="endArrow=classic;html=1;rounded=0;fontSize=12;" edge="1" parent="WIyWlLk6GJQsqaUBKTNV-1">
          <mxGeometry width="50" height="50" relative="1" as="geometry">
            <mxPoint x="219.5" y="590" as="sourcePoint" />
            <mxPoint x="220" y="690" as="targetPoint" />
          </mxGeometry>
        </mxCell>
        <mxCell id="IPIBNWrIA910yKeqlVKv-30" value="出力" style="ellipse;whiteSpace=wrap;html=1;fontSize=12;" vertex="1" parent="WIyWlLk6GJQsqaUBKTNV-1">
          <mxGeometry x="160" y="690" width="120" height="80" as="geometry" />
        </mxCell>
        <mxCell id="IPIBNWrIA910yKeqlVKv-31" value="" style="endArrow=none;html=1;rounded=0;fontSize=12;" edge="1" parent="WIyWlLk6GJQsqaUBKTNV-1">
          <mxGeometry width="50" height="50" relative="1" as="geometry">
            <mxPoint x="220" y="640" as="sourcePoint" />
            <mxPoint x="720" y="640" as="targetPoint" />
          </mxGeometry>
        </mxCell>
        <mxCell id="IPIBNWrIA910yKeqlVKv-32" value="" style="endArrow=none;html=1;rounded=0;fontSize=12;entryX=0.5;entryY=1;entryDx=0;entryDy=0;" edge="1" parent="WIyWlLk6GJQsqaUBKTNV-1" target="IPIBNWrIA910yKeqlVKv-26">
          <mxGeometry width="50" height="50" relative="1" as="geometry">
            <mxPoint x="390" y="640" as="sourcePoint" />
            <mxPoint x="440" y="590" as="targetPoint" />
          </mxGeometry>
        </mxCell>
        <mxCell id="IPIBNWrIA910yKeqlVKv-33" value="" style="endArrow=none;html=1;rounded=0;fontSize=12;entryX=0.5;entryY=1;entryDx=0;entryDy=0;" edge="1" parent="WIyWlLk6GJQsqaUBKTNV-1">
          <mxGeometry width="50" height="50" relative="1" as="geometry">
            <mxPoint x="554.51" y="640" as="sourcePoint" />
            <mxPoint x="554.51" y="590" as="targetPoint" />
          </mxGeometry>
        </mxCell>
        <mxCell id="IPIBNWrIA910yKeqlVKv-34" value="" style="endArrow=none;html=1;rounded=0;fontSize=12;" edge="1" parent="WIyWlLk6GJQsqaUBKTNV-1">
          <mxGeometry width="50" height="50" relative="1" as="geometry">
            <mxPoint x="720" y="640" as="sourcePoint" />
            <mxPoint x="720" y="590" as="targetPoint" />
          </mxGeometry>
        </mxCell>
        <mxCell id="IPIBNWrIA910yKeqlVKv-35" value="" style="endArrow=classic;html=1;rounded=0;fontSize=12;" edge="1" parent="WIyWlLk6GJQsqaUBKTNV-1">
          <mxGeometry relative="1" as="geometry">
            <mxPoint x="719.5" y="480" as="sourcePoint" />
            <mxPoint x="719.5" y="530" as="targetPoint" />
          </mxGeometry>
        </mxCell>
        <mxCell id="IPIBNWrIA910yKeqlVKv-36" value="Yes" style="edgeLabel;resizable=0;html=1;align=center;verticalAlign=middle;fontSize=12;" connectable="0" vertex="1" parent="IPIBNWrIA910yKeqlVKv-35">
          <mxGeometry relative="1" as="geometry" />
        </mxCell>
        <mxCell id="IPIBNWrIA910yKeqlVKv-37" value="それ以外の変数" style="rhombus;whiteSpace=wrap;html=1;fontSize=12;" vertex="1" parent="WIyWlLk6GJQsqaUBKTNV-1">
          <mxGeometry x="660" y="390" width="120" height="90" as="geometry" />
        </mxCell>
      </root>
    </mxGraphModel>
  </diagram>
</mxfile>
